<svg version="1.1" viewBox="0.0 0.0 280.0 90.0" fill="none" stroke="none" stroke-linecap="square" stroke-miterlimit="10" xmlns:xlink="http://www.w3.org/1999/xlink" xmlns="http://www.w3.org/2000/svg"><clipPath id="p.0"><path d="m0 0l1024.0 0l0 768.0l-1024.0 0l0 -768.0z" clip-rule="nonzero"/></clipPath><g clip-path="url(#p.0)"><path fill="#000000" fill-opacity="0.0" d="m0 0l1024.0 0l0 768.0l-1024.0 0z" fill-rule="evenodd"/><path fill="#000000" fill-opacity="0.0" d="m11.717848 23.325459l0 59.87402" fill-rule="evenodd"/><path stroke="#ffff00" stroke-width="4.0" stroke-linejoin="round" stroke-linecap="butt" d="m11.717848 23.325459l0 35.874016" fill-rule="evenodd"/><path fill="#ffff00" stroke="#ffff00" stroke-width="4.0" stroke-linecap="butt" d="m5.110918 59.199474l6.60693 18.152393l6.60693 -18.152393z" fill-rule="evenodd"/><path fill="#000000" fill-opacity="0.0" d="m278.09973 23.325459l-268.063 0" fill-rule="evenodd"/><path stroke="#ffff00" stroke-width="4.0" stroke-linejoin="round" stroke-linecap="butt" d="m278.09973 23.325459l-268.063 0" fill-rule="evenodd"/><path fill="#000000" fill-opacity="0.0" d="m276.0656 23.325459l0 59.87402" fill-rule="evenodd"/><path stroke="#ffff00" stroke-width="4.0" stroke-linejoin="round" stroke-linecap="butt" d="m276.0656 23.325459l0 35.874016" fill-rule="evenodd"/><path fill="#ffff00" stroke="#ffff00" stroke-width="4.0" stroke-linecap="butt" d="m269.45868 59.199474l6.6069336 18.152393l6.6069336 -18.152393z" fill-rule="evenodd"/><path fill="#000000" fill-opacity="0.0" d="m144.26903 0l0 24.094488" fill-rule="evenodd"/><path stroke="#ffff00" stroke-width="4.0" stroke-linejoin="round" stroke-linecap="butt" d="m144.26903 0l0 24.094488" fill-rule="evenodd"/></g></svg>